Coordinates
version=1
nRows=21
nColumns=12
inDegrees=yes

Units are S.I. units (second, meters, Newtons, ...)
Angles are in degrees

endheader
time	SC_y	SC_z	SC_x	AC_y	AC_z	AC_x	GH_y	GH_z	GH_yy	EL_x	PS_y
       0.0               -43.7          29.55          65.48          48.14         -8.212          1.663          105.5           54.0           60.3          107.3           45.0
   0.03704               -43.7          29.55          65.48          48.14         -8.213          1.664          105.5           54.0           60.3          107.2           45.0
   0.07408               -43.7          29.55          65.49          48.15         -8.214          1.666          105.5          54.01           60.3          107.2           45.0
    0.1111              -43.69          29.55          65.49          48.15         -8.214          1.668          105.5          54.01          60.29          107.2           45.0
    0.1482              -43.69          29.55          65.49          48.15         -8.215          1.669          105.5          54.01          60.29          107.2           45.0
    0.1852              -43.69          29.56           65.5          48.15         -8.216          1.671          105.5          54.01          60.28          107.2           45.0
    0.2222              -43.69          29.56           65.5          48.15         -8.217          1.673          105.5          54.01          60.28          107.2           45.0
    0.2593              -43.69          29.56           65.5          48.15         -8.218          1.675          105.5          54.01          60.27          107.2           45.0
    0.2963              -43.68          29.56          65.51          48.15         -8.219          1.677          105.5          54.01          60.27          107.1           45.0
    0.3333              -43.68          29.56          65.51          48.16          -8.22          1.679          105.5          54.01          60.26          107.1           45.0
    0.3704              -43.68          29.56          65.52          48.16         -8.222          1.682          105.5          54.02          60.25          107.1           45.0
    0.4074              -43.68          29.56          65.52          48.16         -8.223          1.685          105.5          54.02          60.25          107.1           45.0
    0.4445              -43.67          29.56          65.53          48.16         -8.225          1.688          105.5          54.02          60.24          107.1          45.01
    0.4815              -43.67          29.56          65.54          48.17         -8.226          1.691          105.5          54.02          60.23          107.0          45.01
    0.5185              -43.67          29.56          65.54          48.17         -8.228          1.694          105.5          54.02          60.22          107.0          45.01
    0.5556              -43.66          29.56          65.55          48.17          -8.23          1.698          105.5          54.03          60.21          107.0          45.01
    0.5926              -43.66          29.56          65.56          48.18         -8.232          1.702          105.5          54.03           60.2          107.0          45.01
    0.6296              -43.65          29.57          65.57          48.18         -8.234          1.706          105.5          54.03          60.19          106.9          45.01
    0.6667              -43.65          29.57          65.58          48.18         -8.237          1.711          105.5          54.04          60.18          106.9          45.02
    0.7037              -43.64          29.57          65.59          48.19         -8.239          1.716          105.5          54.04          60.16          106.8          45.02
    0.7408              -43.64          29.57           65.6          48.19         -8.242          1.722          105.5          54.04          60.15          106.8          45.02
